<svg width="264" height="264" viewBox="0 0 264 264" fill="none" xmlns="http://www.w3.org/2000/svg">
<circle cx="132" cy="132" r="132" fill="#FFAE00"/>
<mask id="path-2-outside-1_8_13" maskUnits="userSpaceOnUse" x="49" y="63" width="167" height="163" fill="black">
<rect fill="white" x="49" y="63" width="167" height="163"/>
<path d="M194.816 220.275H185.191C184.458 200.108 178.591 183.058 167.591 169.125C158.058 157.208 145.316 149.142 129.366 144.925C126.249 144.192 122.766 143.825 118.916 143.825C106.266 144.008 99.116 148.775 97.466 158.125V160.05C97.466 167.017 101.591 171.05 109.841 172.15C113.508 172.15 116.166 171.233 117.816 169.4C120.566 166.1 121.941 162.617 121.941 158.95C128.908 165.55 133.399 170.5 135.416 173.8C137.616 176.917 138.716 180.675 138.716 185.075C138.716 190.025 136.241 194.883 131.291 199.65C126.341 204.417 119.191 206.8 109.841 206.8C97.741 206.25 87.6577 201.483 79.591 192.5C72.2577 184.067 68.4077 174.075 68.041 162.525C68.041 156.108 69.7827 149.508 73.266 142.725C75.8327 137.408 79.6827 133.1 84.816 129.8C93.4327 125.033 102.049 122.65 110.666 122.65C122.033 123.2 134.499 127.967 148.066 136.95C156.316 143.183 162.733 148.958 167.316 154.275C175.566 162.525 181.524 170.5 185.191 178.2V78.1H54.566V68.475H210.491V78.1H194.816V220.275Z"/>
</mask>
<path d="M194.816 220.275H185.191C184.458 200.108 178.591 183.058 167.591 169.125C158.058 157.208 145.316 149.142 129.366 144.925C126.249 144.192 122.766 143.825 118.916 143.825C106.266 144.008 99.116 148.775 97.466 158.125V160.05C97.466 167.017 101.591 171.05 109.841 172.15C113.508 172.15 116.166 171.233 117.816 169.4C120.566 166.1 121.941 162.617 121.941 158.95C128.908 165.55 133.399 170.5 135.416 173.8C137.616 176.917 138.716 180.675 138.716 185.075C138.716 190.025 136.241 194.883 131.291 199.65C126.341 204.417 119.191 206.8 109.841 206.8C97.741 206.25 87.6577 201.483 79.591 192.5C72.2577 184.067 68.4077 174.075 68.041 162.525C68.041 156.108 69.7827 149.508 73.266 142.725C75.8327 137.408 79.6827 133.1 84.816 129.8C93.4327 125.033 102.049 122.65 110.666 122.65C122.033 123.2 134.499 127.967 148.066 136.95C156.316 143.183 162.733 148.958 167.316 154.275C175.566 162.525 181.524 170.5 185.191 178.2V78.1H54.566V68.475H210.491V78.1H194.816V220.275Z" fill="black"/>
<path d="M194.816 220.275V225.275H199.816V220.275H194.816ZM185.191 220.275L180.194 220.457L180.37 225.275H185.191V220.275ZM167.591 169.125L171.515 166.027L171.505 166.014L171.495 166.002L167.591 169.125ZM129.366 144.925L130.644 140.091L130.578 140.074L130.511 140.058L129.366 144.925ZM118.916 143.825V138.825H118.88L118.844 138.826L118.916 143.825ZM97.466 158.125L92.5421 157.256L92.466 157.687V158.125H97.466ZM109.841 172.15L109.18 177.106L109.509 177.15H109.841V172.15ZM117.816 169.4L121.532 172.745L121.596 172.674L121.657 172.601L117.816 169.4ZM121.941 158.95L125.38 155.32L116.941 147.326V158.95H121.941ZM135.416 173.8L131.15 176.407L131.236 176.548L131.331 176.683L135.416 173.8ZM131.291 199.65L127.823 196.048L131.291 199.65ZM109.841 206.8L109.614 211.795L109.727 211.8H109.841V206.8ZM79.591 192.5L75.818 195.781L75.8441 195.811L75.8708 195.841L79.591 192.5ZM68.041 162.525H63.041V162.604L63.0435 162.684L68.041 162.525ZM73.266 142.725L77.7139 145.009L77.742 144.954L77.7688 144.899L73.266 142.725ZM84.816 129.8L82.3957 125.425L82.2512 125.505L82.1122 125.594L84.816 129.8ZM110.666 122.65L110.908 117.656L110.787 117.65H110.666V122.65ZM148.066 136.95L151.08 132.961L150.956 132.867L150.827 132.781L148.066 136.95ZM167.316 154.275L163.529 157.54L163.65 157.68L163.78 157.811L167.316 154.275ZM185.191 178.2L180.677 180.35L190.191 178.2H185.191ZM185.191 78.1H190.191V73.1H185.191V78.1ZM54.566 78.1H49.566V83.1H54.566V78.1ZM54.566 68.475V63.475H49.566V68.475H54.566ZM210.491 68.475H215.491V63.475H210.491V68.475ZM210.491 78.1V83.1H215.491V78.1H210.491ZM194.816 78.1V73.1H189.816V78.1H194.816ZM194.816 215.275H185.191V225.275H194.816V215.275ZM190.188 220.093C189.421 199.017 183.262 180.905 171.515 166.027L163.667 172.223C173.92 185.211 179.494 201.2 180.194 220.457L190.188 220.093ZM171.495 166.002C161.237 153.179 147.541 144.558 130.644 140.091L128.088 149.759C143.091 153.725 154.878 161.238 163.687 172.248L171.495 166.002ZM130.511 140.058C126.953 139.221 123.077 138.825 118.916 138.825V148.825C122.455 148.825 125.546 149.163 128.221 149.792L130.511 140.058ZM118.844 138.826C111.984 138.925 105.963 140.264 101.293 143.377C96.4561 146.602 93.5769 151.392 92.5421 157.256L102.39 158.994C103.005 155.508 104.526 153.24 106.84 151.698C109.32 150.044 113.198 148.908 118.988 148.824L118.844 138.826ZM92.466 158.125V160.05H102.466V158.125H92.466ZM92.466 160.05C92.466 164.579 93.8447 168.727 97.0642 171.875C100.172 174.914 104.442 176.474 109.18 177.106L110.502 167.194C106.99 166.726 105.072 165.719 104.055 164.725C103.15 163.84 102.466 162.487 102.466 160.05H92.466ZM109.841 177.15C114.23 177.15 118.552 176.057 121.532 172.745L114.1 166.055C113.78 166.41 112.786 167.15 109.841 167.15V177.15ZM121.657 172.601C125.021 168.564 126.941 163.981 126.941 158.95H116.941C116.941 161.252 116.111 163.636 113.975 166.199L121.657 172.601ZM118.502 162.58C125.483 169.193 129.518 173.738 131.15 176.407L139.682 171.193C137.28 167.262 132.332 161.907 125.38 155.32L118.502 162.58ZM131.331 176.683C132.848 178.832 133.716 181.544 133.716 185.075H143.716C143.716 179.806 142.384 175.001 139.501 170.917L131.331 176.683ZM133.716 185.075C133.716 188.207 132.183 191.849 127.823 196.048L134.759 203.252C140.299 197.917 143.716 191.843 143.716 185.075H133.716ZM127.823 196.048C124.099 199.635 118.373 201.8 109.841 201.8V211.8C120.009 211.8 128.584 209.199 134.759 203.252L127.823 196.048ZM110.068 201.805C99.3022 201.316 90.4791 197.142 83.3113 189.159L75.8708 195.841C84.8363 205.825 96.1798 211.184 109.614 211.795L110.068 201.805ZM83.364 189.219C76.8135 181.686 73.37 172.808 73.0385 162.366L63.0435 162.684C63.4454 175.342 67.7018 186.447 75.818 195.781L83.364 189.219ZM73.041 162.525C73.041 157.039 74.5254 151.218 77.7139 145.009L68.8182 140.441C65.04 147.799 63.041 155.177 63.041 162.525H73.041ZM77.7688 144.899C79.9207 140.441 83.1346 136.825 87.5198 134.006L82.1122 125.594C76.2308 129.375 71.7447 134.375 68.7633 140.551L77.7688 144.899ZM87.2363 134.175C95.2192 129.759 103.011 127.65 110.666 127.65V117.65C101.088 117.65 91.6461 120.308 82.3957 125.425L87.2363 134.175ZM110.424 127.644C120.587 128.136 132.184 132.43 145.306 141.119L150.827 132.781C136.814 123.503 123.479 118.264 110.908 117.656L110.424 127.644ZM145.052 140.939C153.139 147.049 159.258 152.585 163.529 157.54L171.103 151.01C166.208 145.332 159.493 139.317 151.08 132.961L145.052 140.939ZM163.78 157.811C171.766 165.796 177.327 173.315 180.677 180.35L189.705 176.05C185.722 167.685 179.366 159.254 170.852 150.739L163.78 157.811ZM190.191 178.2V78.1H180.191V178.2H190.191ZM185.191 73.1H54.566V83.1H185.191V73.1ZM59.566 78.1V68.475H49.566V78.1H59.566ZM54.566 73.475H210.491V63.475H54.566V73.475ZM205.491 68.475V78.1H215.491V68.475H205.491ZM210.491 73.1H194.816V83.1H210.491V73.1ZM189.816 78.1V220.275H199.816V78.1H189.816Z" fill="black" mask="url(#path-2-outside-1_8_13)"/>
</svg>
